<svg xmlns="http://www.w3.org/2000/svg" viewBox="0 0 157.92 80.75"><g id="Capa_2" data-name="Capa 2"><g id="Capa_1-2" data-name="Capa 1"><path d="M157.81,40.38a39.92,39.92,0,0,1-4.46,21.14c-10,19.47-30.23,24.77-49.07,13.06-7.94-4.93-14.07-11.71-19.4-19.2-2.7-3.8-4.39-3.72-7.45-.35C71.85,61.19,66.19,67.36,59.3,72.14c-11.45,8-23.76,11.64-37.12,5.44C8.39,71.18,1.82,59.6.25,44.77a47.85,47.85,0,0,1,.92-15.34C7.48.45,36.47-9.28,59,10A91.4,91.4,0,0,1,75,27.79c2.59,3.77,4.32,3.48,6.93.12,5-6.49,11.41-11.64,17.41-17.16C123.05-11,148.89,4.48,155.92,26.5A35,35,0,0,1,157.81,40.38ZM37.05,13.22C29.43,12.87,22.85,16,17.63,22c-7.45,8.56-9.32,18.75-7.27,29.51C13,65.15,23.79,71.59,37.2,67.82c10.15-2.85,17.71-9.67,24.86-17C73.94,38.64,73.91,37.33,61.87,25,55.13,18.17,47.68,12.91,37.05,13.22ZM148.29,36.86c0-.83.06-1.67,0-2.5-1-12.75-6.54-20.49-16.11-22.42-5.75-1.17-10.89.79-15.68,3.59C105.34,22,97.36,31.92,89.21,41.59c-1.56,1.86-1.24,3.66.23,5.4,4.62,5.46,9,11.18,14.58,15.7s12.07,7,19.47,5.72C138.63,65.78,148.17,53.63,148.29,36.86Z" transform="translate(0)"/></g></g></svg>